<svg xmlns="http://www.w3.org/2000/svg" width="20" height="20" viewBox="0 0 48 48">
  <path fill="#EA4335" d="M24 9.5c3.9 0 7.1 1.4 9.3 3.6l6.9-6.9C36.6 2.8 30.7 0 24 0 14.9 0 6.9 5.3 2.7 13.1l8 6.2C12.7 13.6 17.9 9.5 24 9.5z"/>
  <path fill="#34A853" d="M46.5 24c0-1.6-.1-3.1-.4-4.6H24v9.1h12.7c-.6 3.2-2.6 5.9-5.5 7.7l8.4 6.5C43.9 37.6 46.5 31.4 46.5 24z"/>
  <path fill="#4A90E2" d="M9.1 28.3C8.4 26.8 8 25.1 8 23.3c0-1.8.4-3.5 1.1-5.1L2.6 11.9C1 15.1 0 18.5 0 23.3c0 4.8 1 8.2 2.6 11.4l6.5-6.4z"/>
  <path fill="#FBBC05" d="M24 48c6.7 0 12.6-2.2 17.1-6l-8.4-6.5c-2.3 1.6-5.1 2.6-8.7 2.6-6.1 0-11.3-4.1-13.2-9.6l-6.5 5C6.9 42.7 14.9 48 24 48z"/>
</svg>