<?xml version="1.0" encoding="UTF-8"?>
<svg xmlns="http://www.w3.org/2000/svg" width="46" height="46" viewBox="0 0 46 46">
  <defs>
    <clipPath id="a"><path d="M0 0h46v46H0z"/></clipPath>
  </defs>
  <g clip-path="url(#a)">
    <path fill="#fff" d="M0 0h46v46H0z"/>
    <path fill="#EA4335" d="M23.03 10.5c2.9 0 5.05 1.25 6.57 2.3l4.8-4.66C31.9 5.12 27.8 3 23.03 3 14.9 3 7.94 7.86 5.13 14.22l5.8 4.5C12.7 13.22 17.36 10.5 23.03 10.5z"/>
    <path fill="#34A853" d="M9.74 20.72a13.94 13.94 0 010 4.56l-5.8 4.5A23.02 23.02 0 013 23.03c0-1.34.12-2.64.34-3.88l6.4 1.57z"/>
    <path fill="#4A90E2" d="M23.03 40.5c-5.7 0-10.35-2.72-13.1-6.8l-6.4 4.97C7.94 42.14 14.9 47 23.03 47c4.77 0 8.87-2.12 11.37-5.64l-4.8-4.66c-1.52 1.05-3.67 2.3-6.57 2.3z"/>
    <path fill="#FBBC05" d="M42.87 23.03c0-1.28-.11-2.53-.33-3.74H23.03v7.1h11.25c-.5 2.9-2.08 5.36-4.45 6.98l4.8 4.66c3.08-2.83 4.67-7.03 4.67-14z"/>
  </g>
</svg>
